<svg width="32" height="32" viewBox="0 0 32 32" fill="none" xmlns="http://www.w3.org/2000/svg">
<g clip-path="url(#clip0_170_11139)">
<path d="M12.3337 14.5003C11.691 14.5003 11.2593 14.4993 10.9373 14.456C10.6296 14.4146 10.4979 14.3431 10.4111 14.2562L9.70396 14.9634C10.0076 15.267 10.3855 15.3908 10.804 15.4471C11.2082 15.5014 11.7193 15.5003 12.3337 15.5003V14.5003ZM9.16699 12.3337C9.16699 12.9481 9.16593 13.4592 9.22027 13.8633C9.27654 14.2818 9.40032 14.6597 9.70396 14.9634L10.4111 14.2562C10.3242 14.1694 10.2527 14.0377 10.2113 13.7301C10.1681 13.408 10.167 12.9763 10.167 12.3337H9.16699ZM14.5003 12.3337C14.5003 12.9763 14.4993 13.408 14.456 13.7301C14.4146 14.0377 14.3431 14.1694 14.2562 14.2562L14.9634 14.9634C15.267 14.6597 15.3908 14.2818 15.4471 13.8633C15.5014 13.4592 15.5003 12.9481 15.5003 12.3337H14.5003ZM12.3337 15.5003C12.9481 15.5003 13.4592 15.5014 13.8633 15.4471C14.2818 15.3908 14.6597 15.267 14.9634 14.9634L14.2562 14.2562C14.1694 14.3431 14.0377 14.4146 13.7301 14.456C13.408 14.4993 12.9763 14.5003 12.3337 14.5003V15.5003ZM12.3337 10.167C12.9763 10.167 13.408 10.1681 13.7301 10.2113C14.0377 10.2527 14.1694 10.3242 14.2562 10.4111L14.9634 9.70396C14.6597 9.40032 14.2818 9.27654 13.8633 9.22027C13.4592 9.16593 12.9481 9.16699 12.3337 9.16699V10.167ZM15.5003 12.3337C15.5003 11.7193 15.5014 11.2082 15.4471 10.804C15.3908 10.3855 15.267 10.0076 14.9634 9.70396L14.2562 10.4111C14.3431 10.4979 14.4146 10.6296 14.456 10.9373C14.4993 11.2593 14.5003 11.691 14.5003 12.3337H15.5003ZM12.3337 9.16699C11.7193 9.16699 11.2082 9.16593 10.804 9.22027C10.3855 9.27654 10.0076 9.40032 9.70396 9.70396L10.4111 10.4111C10.4979 10.3242 10.6296 10.2527 10.9373 10.2113C11.2593 10.1681 11.691 10.167 12.3337 10.167V9.16699ZM10.167 12.3337C10.167 11.691 10.1681 11.2593 10.2113 10.9373C10.2527 10.6296 10.3242 10.4979 10.4111 10.4111L9.70396 9.70396C9.40032 10.0076 9.27654 10.3855 9.22027 10.804C9.16593 11.2082 9.16699 11.7193 9.16699 12.3337H10.167Z" fill="#36A19B"/>
<path d="M19.6667 21.8333C19.024 21.8333 18.5923 21.8323 18.2703 21.789C17.9626 21.7476 17.831 21.6761 17.7441 21.5893L17.037 22.2964C17.3406 22.6 17.7185 22.7238 18.137 22.7801C18.5412 22.8344 19.0523 22.8333 19.6667 22.8333V21.8333ZM16.5 19.6667C16.5 20.2811 16.4989 20.7922 16.5533 21.1963C16.6095 21.6148 16.7333 21.9927 17.037 22.2964L17.7441 21.5893C17.6572 21.5024 17.5857 21.3707 17.5444 21.0631C17.5011 20.741 17.5 20.3093 17.5 19.6667H16.5ZM21.8333 19.6667C21.8333 20.3093 21.8323 20.741 21.789 21.0631C21.7476 21.3707 21.6761 21.5024 21.5893 21.5893L22.2964 22.2964C22.6 21.9927 22.7238 21.6148 22.7801 21.1963C22.8344 20.7922 22.8333 20.2811 22.8333 19.6667H21.8333ZM19.6667 22.8333C20.2811 22.8333 20.7922 22.8344 21.1963 22.7801C21.6148 22.7238 21.9927 22.6 22.2964 22.2964L21.5893 21.5893C21.5024 21.6761 21.3707 21.7476 21.0631 21.789C20.741 21.8323 20.3093 21.8333 19.6667 21.8333V22.8333ZM19.6667 17.5C20.3093 17.5 20.741 17.5011 21.0631 17.5444C21.3707 17.5857 21.5024 17.6572 21.5893 17.7441L22.2964 17.037C21.9927 16.7333 21.6148 16.6095 21.1963 16.5533C20.7922 16.4989 20.2811 16.5 19.6667 16.5V17.5ZM22.8333 19.6667C22.8333 19.0523 22.8344 18.5412 22.7801 18.137C22.7238 17.7185 22.6 17.3406 22.2964 17.037L21.5893 17.7441C21.6761 17.831 21.7476 17.9626 21.789 18.2703C21.8323 18.5923 21.8333 19.024 21.8333 19.6667H22.8333ZM19.6667 16.5C19.0523 16.5 18.5412 16.4989 18.137 16.5533C17.7185 16.6095 17.3406 16.7333 17.037 17.037L17.7441 17.7441C17.831 17.6572 17.9626 17.5857 18.2703 17.5444C18.5923 17.5011 19.024 17.5 19.6667 17.5V16.5ZM17.5 19.6667C17.5 19.024 17.5011 18.5923 17.5444 18.2703C17.5857 17.9626 17.6572 17.831 17.7441 17.7441L17.037 17.037C16.7333 17.3406 16.6095 17.7185 16.5533 18.137C16.4989 18.5412 16.5 19.0523 16.5 19.6667H17.5Z" fill="#36A19B"/>
<path d="M12.3337 21.8333C11.691 21.8333 11.2593 21.8323 10.9373 21.789C10.6296 21.7476 10.4979 21.6761 10.4111 21.5893L9.70396 22.2964C10.0076 22.6 10.3855 22.7238 10.804 22.7801C11.2082 22.8344 11.7193 22.8333 12.3337 22.8333V21.8333ZM9.16699 19.6667C9.16699 20.2811 9.16593 20.7922 9.22027 21.1963C9.27654 21.6148 9.40032 21.9927 9.70396 22.2964L10.4111 21.5893C10.3242 21.5024 10.2527 21.3707 10.2113 21.0631C10.1681 20.741 10.167 20.3093 10.167 19.6667H9.16699ZM14.5003 19.6667C14.5003 20.3093 14.4993 20.741 14.456 21.0631C14.4146 21.3707 14.3431 21.5024 14.2562 21.5893L14.9634 22.2964C15.267 21.9927 15.3908 21.6148 15.4471 21.1963C15.5014 20.7922 15.5003 20.2811 15.5003 19.6667H14.5003ZM12.3337 22.8333C12.9481 22.8333 13.4592 22.8344 13.8633 22.7801C14.2818 22.7238 14.6597 22.6 14.9634 22.2964L14.2562 21.5893C14.1694 21.6761 14.0377 21.7476 13.7301 21.789C13.408 21.8323 12.9763 21.8333 12.3337 21.8333V22.8333ZM12.3337 17.5C12.9763 17.5 13.408 17.5011 13.7301 17.5444C14.0377 17.5857 14.1694 17.6572 14.2562 17.7441L14.9634 17.037C14.6597 16.7333 14.2818 16.6095 13.8633 16.5533C13.4592 16.4989 12.9481 16.5 12.3337 16.5V17.5ZM15.5003 19.6667C15.5003 19.0523 15.5014 18.5412 15.4471 18.137C15.3908 17.7185 15.267 17.3406 14.9634 17.037L14.2562 17.7441C14.3431 17.831 14.4146 17.9626 14.456 18.2703C14.4993 18.5923 14.5003 19.024 14.5003 19.6667H15.5003ZM12.3337 16.5C11.7193 16.5 11.2082 16.4989 10.804 16.5533C10.3855 16.6095 10.0076 16.7333 9.70396 17.037L10.4111 17.7441C10.4979 17.6572 10.6296 17.5857 10.9373 17.5444C11.2593 17.5011 11.691 17.5 12.3337 17.5V16.5ZM10.167 19.6667C10.167 19.024 10.1681 18.5923 10.2113 18.2703C10.2527 17.9626 10.3242 17.831 10.4111 17.7441L9.70396 17.037C9.40032 17.3406 9.27654 17.7185 9.22027 18.137C9.16593 18.5412 9.16699 19.0523 9.16699 19.6667H10.167Z" fill="#36A19B"/>
<path d="M19.6667 14.5003C19.024 14.5003 18.5923 14.4993 18.2703 14.456C17.9626 14.4146 17.831 14.3431 17.7441 14.2562L17.037 14.9634C17.3406 15.267 17.7185 15.3908 18.137 15.4471C18.5412 15.5014 19.0523 15.5003 19.6667 15.5003V14.5003ZM16.5 12.3337C16.5 12.9481 16.4989 13.4592 16.5533 13.8633C16.6095 14.2818 16.7333 14.6597 17.037 14.9634L17.7441 14.2562C17.6572 14.1694 17.5857 14.0377 17.5444 13.7301C17.5011 13.408 17.5 12.9763 17.5 12.3337H16.5ZM21.8333 12.3337C21.8333 12.9763 21.8323 13.408 21.789 13.7301C21.7476 14.0377 21.6761 14.1694 21.5893 14.2562L22.2964 14.9634C22.6 14.6597 22.7238 14.2818 22.7801 13.8633C22.8344 13.4592 22.8333 12.9481 22.8333 12.3337H21.8333ZM19.6667 15.5003C20.2811 15.5003 20.7922 15.5014 21.1963 15.4471C21.6148 15.3908 21.9927 15.267 22.2964 14.9634L21.5893 14.2562C21.5024 14.3431 21.3707 14.4146 21.0631 14.456C20.741 14.4993 20.3093 14.5003 19.6667 14.5003V15.5003ZM19.6667 10.167C20.3093 10.167 20.741 10.1681 21.0631 10.2113C21.3707 10.2527 21.5024 10.3242 21.5893 10.4111L22.2964 9.70396C21.9927 9.40032 21.6148 9.27654 21.1963 9.22027C20.7922 9.16593 20.2811 9.16699 19.6667 9.16699V10.167ZM22.8333 12.3337C22.8333 11.7193 22.8344 11.2082 22.7801 10.804C22.7238 10.3855 22.6 10.0076 22.2964 9.70396L21.5893 10.4111C21.6761 10.4979 21.7476 10.6296 21.789 10.9373C21.8323 11.2593 21.8333 11.691 21.8333 12.3337H22.8333ZM19.6667 9.16699C19.0523 9.16699 18.5412 9.16593 18.137 9.22027C17.7185 9.27654 17.3406 9.40032 17.037 9.70396L17.7441 10.4111C17.831 10.3242 17.9626 10.2527 18.2703 10.2113C18.5923 10.1681 19.024 10.167 19.6667 10.167V9.16699ZM17.5 12.3337C17.5 11.691 17.5011 11.2593 17.5444 10.9373C17.5857 10.6296 17.6572 10.4979 17.7441 10.4111L17.037 9.70396C16.7333 10.0076 16.6095 10.3855 16.5533 10.804C16.4989 11.2082 16.5 11.7193 16.5 12.3337H17.5Z" fill="#36A19B"/>
</g>
<defs>
<clipPath id="clip0_170_11139">
<rect width="16" height="16" fill="white" transform="translate(8 8)"/>
</clipPath>
</defs>
</svg>
