<svg width="16" height="16" viewBox="0 0 16 16" fill="none" xmlns="http://www.w3.org/2000/svg">
<g clip-path="url(#clip0_184_13620)">
<g clip-path="url(#clip1_184_13620)">
<path d="M10.6866 6.68656C10.8818 6.4913 10.8818 6.17472 10.6866 5.97945C10.4913 5.78419 10.1747 5.78419 9.97945 5.97945L6.99967 8.95923L6.01989 7.97945C5.82463 7.78419 5.50805 7.78419 5.31279 7.97945C5.11753 8.17472 5.11753 8.4913 5.31279 8.68656L6.64612 10.0199C6.84138 10.2152 7.15797 10.2152 7.35323 10.0199L10.6866 6.68656Z" fill="#5B77A2"/>
<path fill-rule="evenodd" clip-rule="evenodd" d="M7.99967 0.833008C4.04163 0.833008 0.833008 4.04163 0.833008 7.99967C0.833008 11.9577 4.04163 15.1663 7.99967 15.1663C11.9577 15.1663 15.1663 11.9577 15.1663 7.99967C15.1663 4.04163 11.9577 0.833008 7.99967 0.833008ZM1.83301 7.99967C1.83301 4.59392 4.59392 1.83301 7.99967 1.83301C11.4054 1.83301 14.1663 4.59392 14.1663 7.99967C14.1663 11.4054 11.4054 14.1663 7.99967 14.1663C4.59392 14.1663 1.83301 11.4054 1.83301 7.99967Z" fill="#5B77A2"/>
</g>
</g>
<defs>
<clipPath id="clip0_184_13620">
<rect width="16" height="16" fill="white"/>
</clipPath>
<clipPath id="clip1_184_13620">
<rect width="16" height="16" fill="white"/>
</clipPath>
</defs>
</svg>
