<svg width="21" height="20" viewBox="0 0 21 20" fill="none" xmlns="http://www.w3.org/2000/svg">
<g id="Linear / Files / File Download">
<path id="Vector" d="M13.0768 3.37788L12.7423 3.74952L12.7423 3.74952L13.0768 3.37788ZM16.3758 6.34696L16.0413 6.71861L16.0413 6.71861L16.3758 6.34696ZM18.2943 8.46158L17.8376 8.665L17.8376 8.665L18.2943 8.46158ZM2.89233 17.3569L3.24588 17.0033L3.24588 17.0033L2.89233 17.3569ZM17.6064 17.3569L17.2528 17.0033L17.2528 17.0033L17.6064 17.3569ZM11.916 18.3332V17.8332H8.58268V18.3332V18.8332H11.916V18.3332ZM1.91602 11.6665H2.41602V8.33317H1.91602H1.41602V11.6665H1.91602ZM18.5827 11.3023H18.0827V11.6665H18.5827H19.0827V11.3023H18.5827ZM13.0768 3.37788L12.7423 3.74952L16.0413 6.71861L16.3758 6.34696L16.7103 5.97531L13.4113 3.00623L13.0768 3.37788ZM18.5827 11.3023H19.0827C19.0827 9.88425 19.0928 9.02535 18.7511 8.25816L18.2943 8.46158L17.8376 8.665C18.0726 9.19264 18.0827 9.79592 18.0827 11.3023H18.5827ZM16.3758 6.34696L16.0413 6.71861C17.161 7.72629 17.6026 8.13737 17.8376 8.665L18.2943 8.46158L18.7511 8.25817C18.4094 7.49098 17.7643 6.92391 16.7103 5.97531L16.3758 6.34696ZM8.60751 1.6665V2.1665C9.91621 2.1665 10.4412 2.17422 10.9112 2.35458L11.0904 1.88777L11.2695 1.42096C10.5863 1.15878 9.84048 1.1665 8.60751 1.1665V1.6665ZM13.0768 3.37788L13.4113 3.00623C12.4993 2.18545 11.9526 1.68311 11.2695 1.42096L11.0904 1.88777L10.9112 2.35458C11.3813 2.53496 11.7745 2.87851 12.7423 3.74952L13.0768 3.37788ZM8.58268 18.3332V17.8332C6.9972 17.8332 5.85839 17.8321 4.99173 17.7156C4.13946 17.601 3.62565 17.3831 3.24588 17.0033L2.89233 17.3569L2.53877 17.7104C3.13531 18.307 3.89533 18.5772 4.85849 18.7067C5.80726 18.8342 7.02547 18.8332 8.58268 18.8332V18.3332ZM1.91602 11.6665H1.41602C1.41602 13.2237 1.41495 14.4419 1.54251 15.3907C1.67201 16.3539 1.94223 17.1139 2.53877 17.7104L2.89233 17.3569L3.24588 17.0033C2.86611 16.6235 2.64818 16.1097 2.5336 15.2575C2.41708 14.3908 2.41602 13.252 2.41602 11.6665H1.91602ZM11.916 18.3332V18.8332C13.4732 18.8332 14.6914 18.8342 15.6402 18.7067C16.6034 18.5772 17.3634 18.307 17.9599 17.7104L17.6064 17.3569L17.2528 17.0033C16.873 17.3831 16.3592 17.601 15.507 17.7156C14.6403 17.8321 13.5015 17.8332 11.916 17.8332V18.3332ZM18.5827 11.6665H18.0827C18.0827 13.252 18.0816 14.3908 17.9651 15.2575C17.8505 16.1097 17.6326 16.6235 17.2528 17.0033L17.6064 17.3569L17.9599 17.7104C18.5565 17.1139 18.8267 16.3539 18.9562 15.3907C19.0837 14.4419 19.0827 13.2237 19.0827 11.6665H18.5827ZM1.91602 8.33317H2.41602C2.41602 6.74769 2.41708 5.60887 2.5336 4.74222C2.64818 3.88995 2.86611 3.37614 3.24588 2.99637L2.89233 2.64281L2.53877 2.28926C1.94223 2.8858 1.67201 3.64582 1.54251 4.60897C1.41495 5.55775 1.41602 6.77596 1.41602 8.33317H1.91602ZM8.60751 1.6665V1.1665C7.04197 1.1665 5.81772 1.16545 4.86499 1.29296C3.89825 1.42235 3.1357 1.69233 2.53877 2.28926L2.89233 2.64281L3.24588 2.99637C3.62526 2.61699 4.14068 2.39882 4.99764 2.28412C5.86861 2.16756 7.0138 2.1665 8.60751 2.1665V1.6665Z" fill="#5B77A2"/>
<path id="Vector_2" d="M11.084 2.0835V4.16683C11.084 6.13101 11.084 7.11311 11.6942 7.7233C12.3044 8.3335 13.2865 8.3335 15.2507 8.3335H18.584" stroke="#5B77A2"/>
<path id="Vector_3" d="M7.33268 11.2498L7.33268 15.4165M7.33268 15.4165L8.99935 13.854M7.33268 15.4165L5.66602 13.854" stroke="#5B77A2" stroke-linecap="round" stroke-linejoin="round"/>
</g>
</svg>
