<svg width="32" height="32" viewBox="0 0 32 32" fill="none" xmlns="http://www.w3.org/2000/svg">
<g clip-path="url(#clip0_170_11147)">
<path d="M20.9615 16.0566L20.5408 16.3268V16.3268L20.9615 16.0566ZM10.3002 17.206L9.87955 16.9358H9.87955L10.3002 17.206ZM11.0385 16.0566L10.6178 15.7864L11.0385 16.0566ZM20.6864 20.015L20.5502 19.5339H20.5502L20.6864 20.015ZM11.3136 20.015L11.4498 19.5339H11.4498L11.3136 20.015ZM19.9994 14.003V14.4727H20.9994V14.003H19.9994ZM20.5408 16.3268L21.2791 17.4762L22.1205 16.9358L21.3822 15.7864L20.5408 16.3268ZM10.7209 17.4762L11.4592 16.3268L10.6178 15.7864L9.87955 16.9358L10.7209 17.4762ZM12.0006 14.4727V14.003H11.0006V14.4727H12.0006ZM20.5502 19.5339C17.571 20.3772 14.429 20.3772 11.4498 19.5339L11.1774 20.4961C14.3347 21.3898 17.6653 21.3898 20.8226 20.4961L20.5502 19.5339ZM11.4592 16.3268C11.8129 15.7762 12.0006 15.1311 12.0006 14.4727H11.0006C11.0006 14.9418 10.8667 15.3989 10.6178 15.7864L11.4592 16.3268ZM19.9994 14.4727C19.9994 15.1311 20.1871 15.7762 20.5408 16.3268L21.3822 15.7864C21.1333 15.3989 20.9994 14.9418 20.9994 14.4727H19.9994ZM9.87955 16.9358C9.03337 18.2532 9.66462 20.0678 11.1774 20.4961L11.4498 19.5339C10.6168 19.2981 10.2184 18.2586 10.7209 17.4762L9.87955 16.9358ZM21.2791 17.4762C21.7816 18.2586 21.3832 19.2981 20.5502 19.5339L20.8226 20.4961C22.3354 20.0678 22.9666 18.2532 22.1205 16.9358L21.2791 17.4762ZM16 9.83301C18.1914 9.83301 19.9994 11.6823 19.9994 14.003H20.9994C20.9994 11.1654 18.7785 8.83301 16 8.83301V9.83301ZM16 8.83301C13.2215 8.83301 11.0006 11.1654 11.0006 14.003H12.0006C12.0006 11.6823 13.8086 9.83301 16 9.83301V8.83301Z" fill="#5B77A2"/>
<path d="M13 20.667C13.4367 21.8322 14.615 22.667 16 22.667C17.385 22.667 18.5633 21.8322 19 20.667" stroke="#5B77A2" stroke-linecap="round"/>
</g>
<defs>
<clipPath id="clip0_170_11147">
<rect width="16" height="16" fill="white" transform="translate(8 8)"/>
</clipPath>
</defs>
</svg>
