<svg width="21" height="20" viewBox="0 0 21 20" fill="none" xmlns="http://www.w3.org/2000/svg">
<g id="Outline / Messages, Conversation / Pen 2">
<path id="Vector" fill-rule="evenodd" clip-rule="evenodd" d="M12.4995 1.9929C13.7674 0.725022 15.8231 0.725022 17.0909 1.9929C18.3588 3.26078 18.3588 5.31642 17.0909 6.5843L10.7626 12.9127C10.4059 13.2694 10.1881 13.4872 9.94534 13.6765C9.65932 13.8996 9.34984 14.0909 9.02238 14.247C8.74445 14.3794 8.4522 14.4768 7.97365 14.6363L5.74644 15.3787L5.21172 15.557C4.73309 15.7165 4.20541 15.5919 3.84866 15.2352C3.49191 14.8784 3.36734 14.3507 3.52688 13.8721L4.44752 11.1102C4.60701 10.6316 4.70441 10.3394 4.83687 10.0615C4.99293 9.734 5.1842 9.42452 5.40729 9.13849C5.59665 8.89572 5.81449 8.67791 6.1712 8.32123L12.4995 1.9929ZM5.7176 14.0707L5.01313 13.3662L5.62015 11.5452C5.79688 11.015 5.86988 10.7994 5.96528 10.5992C6.08228 10.3537 6.22567 10.1217 6.39293 9.90727C6.52931 9.73243 6.68948 9.57072 7.08467 9.17553L11.9938 4.26639C12.1965 4.77471 12.5393 5.38823 13.1175 5.96638C13.6956 6.54454 14.3091 6.88739 14.8175 7.09002L9.90831 11.9992C9.51311 12.3944 9.35141 12.5545 9.17657 12.6909C8.96213 12.8582 8.73011 13.0016 8.48461 13.1186C8.28444 13.214 8.06886 13.287 7.53866 13.4637L5.7176 14.0707ZM15.8135 6.094C15.7103 6.07134 15.5813 6.03726 15.4346 5.98636C15.0312 5.84643 14.5007 5.58181 14.0013 5.0825C13.502 4.58319 13.2374 4.05262 13.0975 3.64927C13.0466 3.50258 13.0125 3.37355 12.9898 3.27036L13.3834 2.87679C14.1631 2.09706 15.4273 2.09706 16.2071 2.87679C16.9868 3.65651 16.9868 4.9207 16.2071 5.70042L15.8135 6.094ZM3.45851 18.3337C3.45851 17.9885 3.73834 17.7087 4.08351 17.7087H17.4168V18.9587H4.08351C3.73834 18.9587 3.45851 18.6788 3.45851 18.3337Z" fill="#5B77A2"/>
</g>
</svg>
