<svg width="21" height="20" viewBox="0 0 21 20" fill="none" xmlns="http://www.w3.org/2000/svg">
<g id="Linear / Essentional, UI / Trash Bin Trash">
<path id="Vector" d="M17.989 5H3.82227" stroke="#F5D9D5" stroke-linecap="round"/>
<path id="Vector_2" d="M16.5998 7.08301L16.2165 12.8323C16.069 15.0447 15.9953 16.1509 15.2745 16.8253C14.5536 17.4997 13.445 17.4997 11.2276 17.4997H10.5831C8.36581 17.4997 7.25715 17.4997 6.5363 16.8253C5.81546 16.1509 5.74172 15.0447 5.59422 12.8323L5.21094 7.08301" stroke="#F5D9D5" stroke-linecap="round"/>
<path id="Vector_3" d="M9.31978 9.11724C9.29231 8.84247 9.04729 8.642 8.77251 8.66947C8.49774 8.69695 8.29727 8.94197 8.32475 9.21674L9.31978 9.11724ZM8.74141 13.3834C8.76889 13.6582 9.01391 13.8587 9.28869 13.8312C9.56346 13.8037 9.76393 13.5587 9.73645 13.2839L8.74141 13.3834ZM8.32475 9.21674L8.74141 13.3834L9.73645 13.2839L9.31978 9.11724L8.32475 9.21674Z" fill="#F5D9D5"/>
<path id="Vector_4" d="M13.4865 9.21674C13.5139 8.94197 13.3135 8.69695 13.0387 8.66947C12.7639 8.642 12.5189 8.84247 12.4914 9.11724L13.4865 9.21674ZM12.0747 13.2839C12.0473 13.5587 12.2477 13.8037 12.5225 13.8312C12.7973 13.8587 13.0423 13.6582 13.0698 13.3834L12.0747 13.2839ZM12.4914 9.11724L12.0747 13.2839L13.0698 13.3834L13.4865 9.21674L12.4914 9.11724Z" fill="#F5D9D5"/>
<path id="Vector_5" d="M6.32227 5C6.36883 5 6.39212 5 6.41322 4.99947C7.09943 4.98208 7.70479 4.54576 7.93828 3.90027C7.94546 3.88041 7.95282 3.85832 7.96755 3.81415L8.04846 3.57143C8.11752 3.36423 8.15206 3.26063 8.19786 3.17267C8.38061 2.82173 8.71872 2.57803 9.10944 2.51564C9.20737 2.5 9.31658 2.5 9.53498 2.5H12.2762C12.4946 2.5 12.6038 2.5 12.7018 2.51564C13.0925 2.57803 13.4306 2.82173 13.6133 3.17267C13.6591 3.26063 13.6937 3.36423 13.7627 3.57143L13.8436 3.81415C13.8584 3.85826 13.8657 3.88042 13.8729 3.90027C14.1064 4.54576 14.7118 4.98208 15.398 4.99947C15.4191 5 15.4424 5 15.4889 5" stroke="#F5D9D5"/>
</g>
</svg>
