<svg width="32" height="32" viewBox="0 0 32 32" fill="none" xmlns="http://www.w3.org/2000/svg">
<path d="M0.5 8C0.5 3.85786 3.85786 0.5 8 0.5H24C28.1421 0.5 31.5 3.85786 31.5 8V24C31.5 28.1421 28.1421 31.5 24 31.5H8C3.85786 31.5 0.5 28.1421 0.5 24V8Z" fill="white"/>
<path d="M0.5 8C0.5 3.85786 3.85786 0.5 8 0.5H24C28.1421 0.5 31.5 3.85786 31.5 8V24C31.5 28.1421 28.1421 31.5 24 31.5H8C3.85786 31.5 0.5 28.1421 0.5 24V8Z" stroke="#CC3F2D"/>
<g clip-path="url(#clip0_364_31311)">
<path d="M21.6666 12H10.3333" stroke="#CC3F2D" stroke-linecap="round"/>
<path d="M20.5556 13.6665L20.2489 18.2659C20.1309 20.0359 20.0719 20.9208 19.4953 21.4603C18.9186 21.9998 18.0317 21.9998 16.2578 21.9998H15.7422C13.9684 21.9998 13.0814 21.9998 12.5048 21.4603C11.9281 20.9208 11.8691 20.0359 11.7511 18.2659L11.4445 13.6665" stroke="#CC3F2D" stroke-linecap="round"/>
<path d="M14.8308 15.2837C14.8034 15.009 14.5583 14.8085 14.2836 14.836C14.0088 14.8635 13.8083 15.1085 13.8358 15.3832L14.8308 15.2837ZM14.1691 18.7166C14.1966 18.9914 14.4416 19.1918 14.7164 19.1643C14.9912 19.1369 15.1916 18.8918 15.1642 18.6171L14.1691 18.7166ZM13.8358 15.3832L14.1691 18.7166L15.1642 18.6171L14.8308 15.2837L13.8358 15.3832Z" fill="#CC3F2D"/>
<path d="M18.1642 15.3832C18.1916 15.1085 17.9912 14.8635 17.7164 14.836C17.4416 14.8085 17.1966 15.009 17.1691 15.2837L18.1642 15.3832ZM16.8358 18.6171C16.8083 18.8918 17.0088 19.1369 17.2836 19.1643C17.5583 19.1918 17.8034 18.9914 17.8308 18.7166L16.8358 18.6171ZM17.1691 15.2837L16.8358 18.6171L17.8308 18.7166L18.1642 15.3832L17.1691 15.2837Z" fill="#CC3F2D"/>
<path d="M12.3333 12C12.3706 12 12.3892 12 12.4061 11.9996C12.955 11.9857 13.4393 11.6366 13.6261 11.1202C13.6319 11.1043 13.6378 11.0867 13.6495 11.0513L13.7143 10.8571C13.7695 10.6914 13.7971 10.6085 13.8338 10.5381C13.98 10.2574 14.2505 10.0624 14.5631 10.0125C14.6414 10 14.7288 10 14.9035 10H17.0965C17.2712 10 17.3586 10 17.4369 10.0125C17.7495 10.0624 18.02 10.2574 18.1662 10.5381C18.2028 10.6085 18.2304 10.6914 18.2857 10.8571L18.3504 11.0513C18.3622 11.0866 18.3681 11.1043 18.3738 11.1202C18.5606 11.6366 19.0449 11.9857 19.5939 11.9996C19.6108 12 19.6294 12 19.6666 12" stroke="#CC3F2D"/>
</g>
<defs>
<clipPath id="clip0_364_31311">
<rect width="16" height="16" fill="white" transform="translate(8 8)"/>
</clipPath>
</defs>
</svg>
