<svg width="32" height="32" viewBox="0 0 32 32" fill="none" xmlns="http://www.w3.org/2000/svg">
<path d="M0.5 8C0.5 3.85786 3.85786 0.5 8 0.5H24C28.1421 0.5 31.5 3.85786 31.5 8V24C31.5 28.1421 28.1421 31.5 24 31.5H8C3.85786 31.5 0.5 28.1421 0.5 24V8Z" fill="white"/>
<path d="M0.5 8C0.5 3.85786 3.85786 0.5 8 0.5H24C28.1421 0.5 31.5 3.85786 31.5 8V24C31.5 28.1421 28.1421 31.5 24 31.5H8C3.85786 31.5 0.5 28.1421 0.5 24V8Z" stroke="#E17F24"/>
<g clip-path="url(#clip0_364_31305)">
<path d="M10.6667 22.6665H21.3334" stroke="#E17F24" stroke-linecap="round"/>
<path d="M17.2587 10.4421L17.7531 9.94778C18.5721 9.12874 19.9 9.12874 20.7191 9.94778C21.5381 10.7668 21.5381 12.0948 20.7191 12.9138L20.2247 13.4081M17.2587 10.4421C17.2587 10.4421 17.3205 11.4926 18.2474 12.4195C19.1743 13.3463 20.2247 13.4081 20.2247 13.4081M17.2587 10.4421L12.7141 14.9868C12.4062 15.2946 12.2523 15.4485 12.12 15.6182C11.9638 15.8184 11.83 16.035 11.7207 16.2642C11.6281 16.4585 11.5593 16.6649 11.4217 17.0779L10.8383 18.8279M20.2247 13.4081L15.6801 17.9528C15.3723 18.2606 15.2183 18.4145 15.0486 18.5469C14.8485 18.703 14.6319 18.8369 14.4027 18.9461C14.2084 19.0387 14.0019 19.1075 13.5889 19.2452L11.8389 19.8285M11.8389 19.8285L11.4111 19.9711C11.2079 20.0389 10.9838 19.986 10.8324 19.8345C10.6809 19.683 10.628 19.4589 10.6957 19.2557L10.8383 18.8279M11.8389 19.8285L10.8383 18.8279" stroke="#E17F24"/>
</g>
<defs>
<clipPath id="clip0_364_31305">
<rect width="16" height="16" fill="white" transform="translate(8 8)"/>
</clipPath>
</defs>
</svg>
