<svg width="32" height="32" viewBox="0 0 32 32" fill="none" xmlns="http://www.w3.org/2000/svg">
<path d="M0.5 8C0.5 3.85786 3.85786 0.5 8 0.5H24C28.1421 0.5 31.5 3.85786 31.5 8V24C31.5 28.1421 28.1421 31.5 24 31.5H8C3.85786 31.5 0.5 28.1421 0.5 24V8Z" fill="white"/>
<path d="M0.5 8C0.5 3.85786 3.85786 0.5 8 0.5H24C28.1421 0.5 31.5 3.85786 31.5 8V24C31.5 28.1421 28.1421 31.5 24 31.5H8C3.85786 31.5 0.5 28.1421 0.5 24V8Z" stroke="#1A90B0"/>
<g clip-path="url(#clip0_364_31304)">
<path d="M10.1832 18.1969C9.61662 17.4608 9.33331 17.0928 9.33331 15.9998C9.33331 14.9069 9.61662 14.5389 10.1832 13.8027C11.3146 12.3329 13.2121 10.6665 16 10.6665C18.7879 10.6665 20.6853 12.3329 21.8167 13.8027C22.3833 14.5389 22.6666 14.9069 22.6666 15.9998C22.6666 17.0928 22.3833 17.4608 21.8167 18.1969C20.6853 19.6668 18.7879 21.3332 16 21.3332C13.2121 21.3332 11.3146 19.6668 10.1832 18.1969Z" stroke="#1A90B0"/>
<path d="M18 16C18 17.1046 17.1046 18 16 18C14.8954 18 14 17.1046 14 16C14 14.8954 14.8954 14 16 14C17.1046 14 18 14.8954 18 16Z" stroke="#1A90B0"/>
</g>
<defs>
<clipPath id="clip0_364_31304">
<rect width="16" height="16" fill="white" transform="translate(8 8)"/>
</clipPath>
</defs>
</svg>
